<?xml version="1.0" encoding="UTF-8" standalone="no"?><svg xmlns="http://www.w3.org/2000/svg" xmlns:xlink="http://www.w3.org/1999/xlink" aria-hidden="true" role="img" class="iconify iconify--logos w-10 h-10 theme-adaptive-icon transition-transform group-hover:scale-110" data-icon="logos:dialogflow" width="0.79em" height="1em" viewBox="0 0 256 326" style="filter: drop-shadow(rgba(0, 0, 0, 0.1) 0px 0px 2px); display: block;"><defs><path id="iconifyReact1084" d="M244.828 64.429L139.051 3.389a22.13 22.13 0 0 0-22.188 0L11.067 64.428A22.26 22.26 0 0 0 0 83.666v122.171a22.19 22.19 0 0 0 11.067 19.184l52.925 30.592v62.372a6.658 6.658 0 0 0 9.987 5.74l170.957-98.65a22.13 22.13 0 0 0 11.068-19.184V83.648a22.31 22.31 0 0 0-11.176-19.219"/></defs><mask id="iconifyReact1085" fill="#fff"><use href="#iconifyReact1084"/></mask><path fill="#EF6C00" d="m255.896 70.871l-127.912 73.872L0 70.871v147.743l63.992 36.909v73.889l191.904-110.798z" mask="url(#iconifyReact1085)"/><path fill="#FF9800" d="M127.984 144.743L0 70.871L127.984-3l127.912 73.871z" mask="url(#iconifyReact1085)"/><path fill="#FF9800" d="M125.716 142.493L.81 70.386l-.81.485l127.984 73.872l127.912-73.872l-3.006-1.781z" mask="url(#iconifyReact1085)"/><path fill="#FF9800" d="M127.984 145.661v-.918L.81 71.303l-.81.486z" mask="url(#iconifyReact1085)"/></svg>